<svg xmlns="http://www.w3.org/2000/svg" viewBox="0 0 512.004 512.004">
  <path fill="#e1e8ed" d="M512.004 511.666V482.99c0-47.516-38.513-86.029-86.029-86.029H196.566c-47.502 0-86.029 38.513-86.029 86.029v28.676h401.467z"/>
  <path fill="#292f33" d="M429.012 397.969c0 21.579-52.707 39.086-117.743 39.086-65.024 0-117.744-17.508-117.744-39.086 0-21.579 52.721-39.1 117.744-39.1 65.036 0 117.743 17.521 117.743 39.1"/>
  <path fill="#99aab5" d="M311.271 437.049c65.038 0 117.744-17.493 117.744-39.1 0-.273-.115-.545-.129-.845-.975-.029-1.936-.144-2.911-.144H196.566c-.975 0-1.936.115-2.911.144-.015.301-.129.574-.129.845.002 21.607 52.721 39.1 117.745 39.1"/>
  <path fill="#ea596e" d="M439.361 396.961h-16.69c.2 0 .415.933.415 1.821 0 19.5-50.055 34.9-111.822 34.9-61.754 0-111.809-15.2-111.809-34.7 0-.888.215-2.022.415-2.022h-10.524l-10.109 1.419.072 14.596c1.634 34.483 60.02 48.635 131.954 48.635 71.662 0 129.816-14.466 131.91-48.936l.2-13.965-4.012-1.748z"/>
  <path fill="#be1931" d="M311.271 433.281c-61.754 0-111.822-15.829-111.822-35.329 0-19.485 50.069-35.315 111.822-35.315s111.823 15.83 111.823 35.315c0 19.5-50.069 35.33-111.823 35.33m0-84.608c-72.966 0-132.11 22.066-132.11 49.28 0 27.242 59.145 49.322 132.11 49.322s132.11-22.08 132.11-49.322c0-27.215-59.144-49.28-132.11-49.28"/>
  <path fill="#af7e57" d="M248.752 396.067c25.005 18.167 40.835 21.665 62.514 21.665s37.509-3.512 62.514-21.665v-54.642H248.753v54.642z"/>
  <path fill="#9b6a49" d="M248.639 367.891c17.435 19.7 39.056 25.035 62.571 25.035 23.5 0 45.121-5.349 62.571-25.035v-50.055H248.64v50.055z"/>
  <g fill="#af7e57">
    <path d="M217.275 223.984c0 20.761-10.524 37.594-23.5 37.594s-23.5-16.833-23.5-37.594 10.524-37.609 23.5-37.609 23.5 16.847 23.5 37.609M452.257 223.984c0 20.761-10.51 37.594-23.5 37.594-12.976 0-23.486-16.833-23.486-37.594s10.51-37.609 23.486-37.609c12.99 0 23.5 16.847 23.5 37.609"/>
    <path d="M189.074 238.663c0-80.135 54.715-145.117 122.203-145.117s122.19 64.98 122.19 145.117-54.7 145.115-122.19 145.115-122.203-64.98-122.203-145.115"/>
  </g>
  <path fill="#915a34" d="M311.271 336.767c-39.486 0-51.617-10.108-53.639-12.158a9.397 9.397 0 0 1 0-13.291c3.557-3.557 9.248-3.642 12.933-.33.745.53 10.339 6.982 40.705 6.982 31.544 0 40.664-6.954 40.749-7.026 3.671-3.656 9.42-3.484 13.091.215 3.671 3.671 3.47 9.779-.2 13.449-2.021 2.05-14.153 12.16-53.639 12.16"/>
  <g fill="#60352a">
    <path d="M311.271 45.385c80.981 0 131.595 59.761 131.595 109.558s-10.122 69.726-20.245 49.796l-20.245-39.832s-60.736 0-80.981-19.93c0 0 30.369 59.762-30.369 0 0 0 10.123 39.845-50.613-9.95 0 0-30.37 19.915-40.49 69.712-2.812 13.821-20.245 0-20.245-49.797-.002-49.797 40.488-109.557 131.593-109.557"/>
    <path d="M253.919 239.243c-7.887 0-14.338-6.453-14.338-14.338v-14.338c0-7.886 6.453-14.337 14.338-14.337s14.337 6.452 14.337 14.338v14.337c.002 7.885-6.451 14.337-14.337 14.337M368.624 239.243c-7.887 0-14.338-6.453-14.338-14.338v-14.338c0-7.886 6.453-14.337 14.338-14.337 7.886 0 14.337 6.452 14.337 14.338v14.337c0 7.885-6.451 14.337-14.337 14.337"/>
  </g>
  <path fill="#915a34" d="M322.025 278.673h-21.508c-5.92 0-10.753-4.832-10.753-10.754 0-5.921 4.831-10.754 10.753-10.754h21.508c5.921 0 10.754 4.831 10.754 10.754 0 5.921-4.833 10.754-10.754 10.754"/>
  <path fill="#55acee" d="M468.99 468.651v43.014h43.014v-28.676c0-4.89-.502-9.664-1.29-14.338H468.99z"/>
  <path fill="#ffcc4d" d="M512.004 511.666h-28.677V482.99h28.677v28.676z"/>
  <path fill="#e1e8ed" d="M339.999 511.666c-17.178-73.783-86.716-129.042-170.006-129.042S17.178 437.88 0 511.666h339.999z"/>
  <path fill="#292f33" d="M320.861 511.666c-16.818-64.005-77.883-111.521-150.865-111.521-72.966 0-134.046 47.516-150.865 111.521h301.73z"/>
  <path fill="#ffac33" d="M306.076 511.666c-16.46-56.448-71.06-97.972-136.069-97.972s-119.62 41.523-136.082 97.972h272.151z"/>
  <path fill="#ffdc5d" d="M256.724 498.028l1.477-.904c10.998-6.696 13.291-22.066 4.286-31.285a119.706 119.706 0 0 0-22.453-18.181c-8.029-5.004-16.589-8.905-25.565-11.858-11.873-3.9-24.533 3.341-26.755 15.657-1.72 9.464 3.226 19.3 12.259 22.612 12.402 4.56 23.327 11.857 31.988 21.133 6.353 6.77 16.834 7.643 24.763 2.826"/>
  <path fill="#9266cc" d="M86.797 199.987L64.69 191.8l-8.603-31.544a9.565 9.565 0 0 0-9.233-7.04 9.562 9.562 0 0 0-9.22 7.04L29.03 191.8l-22.109 8.187a9.533 9.533 0 0 0-6.237 8.962c0 4 2.481 7.585 6.237 8.961l21.994 8.144 8.675 34.626a9.567 9.567 0 0 0 9.262 7.241 9.57 9.57 0 0 0 9.277-7.241l8.675-34.626 21.994-8.144a9.533 9.533 0 0 0 6.237-8.961c-.001-4-2.481-7.585-6.237-8.962"/>
  <path fill="#5dadec" d="M157.564 61.935L120.14 48.084l-13.85-37.423A15.81 15.81 0 0 0 91.451.338a15.839 15.839 0 0 0-14.84 10.323l-13.85 37.423-37.409 13.851a15.82 15.82 0 0 0 0 29.68l37.408 13.85 13.851 37.422a15.839 15.839 0 0 0 14.84 10.324 15.81 15.81 0 0 0 14.84-10.324l13.85-37.422 37.423-13.851a15.825 15.825 0 0 0 0-29.679"/>
</svg>
